<?xml version="1.0" standalone="no"?>
<!DOCTYPE svg PUBLIC "-//W3C//DTD SVG 20010904//EN"
 "http://www.w3.org/TR/2001/REC-SVG-20010904/DTD/svg10.dtd">
<svg version="1.0" xmlns="http://www.w3.org/2000/svg"
 width="250.000000pt" height="250.000000pt" viewBox="0 0 250.000000 250.000000"
 preserveAspectRatio="xMidYMid meet">
<metadata>
Created by potrace 1.16, written by Peter Selinger 2001-2019
</metadata>
<g transform="translate(0.000000,250.000000) scale(0.050000,-0.050000)"
fill="#000000" stroke="none">
<path d="M2220 4070 l0 -50 122 0 c98 0 120 -3 110 -12 -7 -7 -61 -42 -120
-78 l-107 -66 -3 -49 -3 -50 211 -3 210 -4 0 51 0 51 -127 0 -128 0 127 83
127 82 1 48 0 47 -210 0 -210 0 0 -50z"/>
<path d="M2220 3600 l0 -50 210 0 210 0 0 50 0 50 -210 0 -210 0 0 -50z"/>
<path d="M2357 3436 c-61 -22 -97 -57 -129 -125 -59 -127 52 -281 202 -281 89
0 161 45 201 126 78 162 -98 342 -274 280z m164 -125 c32 -32 39 -83 18 -124
-15 -28 -25 -35 -72 -47 -48 -14 -111 4 -138 38 -29 38 -25 93 10 131 26 28
35 31 91 31 55 0 65 -3 91 -29z"/>
<path d="M2233 2918 c-10 -21 -17 -57 -17 -100 -1 -62 2 -70 39 -123 54 -78
109 -108 188 -102 146 9 248 177 189 311 -12 25 -25 46 -29 46 -4 0 -23 -9
-41 -20 -28 -17 -32 -24 -25 -43 4 -12 8 -43 8 -69 0 -58 -28 -98 -79 -115
-98 -33 -191 84 -141 180 14 27 13 28 -25 47 -22 11 -42 20 -44 20 -3 0 -13
-15 -23 -32z"/>
<path d="M2220 2371 l0 -151 45 0 45 0 0 50 0 50 165 0 165 0 0 45 0 45 -164
0 -165 0 -3 53 -3 52 -42 3 -43 3 0 -150z"/>
<path d="M2220 2080 l0 -50 210 0 210 0 0 50 0 50 -210 0 -210 0 0 -50z"/>
<path d="M2472 1920 c-12 -5 -30 -23 -39 -39 l-17 -29 -28 21 c-31 23 -77 26
-113 7 -39 -21 -55 -68 -55 -162 l0 -83 210 0 210 0 0 98 c0 113 -15 159 -61
182 -31 17 -73 18 -107 5z"/>
<path d="M3256 1548 c3 -84 7 -159 10 -165 2 -7 17 -13 34 -13 17 0 32 6 35
13 2 6 6 81 8 165 l5 152 -49 0 -49 0 6 -152z"/>
<path d="M1574 1510 c-18 -6 -48 -28 -68 -50 -32 -36 -36 -46 -36 -95 0 -46 5
-59 30 -88 40 -46 78 -60 145 -55 44 4 62 11 85 33 17 16 30 32 30 35 0 3 -15
14 -34 22 -30 15 -35 15 -49 1 -32 -32 -107 -11 -107 29 0 4 45 8 100 8 l100
0 0 34 c0 87 -104 154 -196 126z"/>
<path d="M2035 1506 c-108 -48 -121 -206 -22 -266 39 -24 104 -26 135 -4 12 8
22 10 22 5 0 -6 21 -11 48 -11 l49 0 6 107 c4 58 7 121 7 140 l0 33 -55 0
c-30 0 -55 -4 -55 -9 0 -6 -12 -3 -27 5 -34 17 -69 17 -108 0z"/>
<path d="M2392 1501 c-43 -27 -72 -77 -72 -123 0 -57 27 -115 65 -138 39 -24
111 -27 143 -4 l22 15 0 -80 0 -81 50 0 50 0 0 210 0 210 -50 0 c-40 0 -50 -3
-50 -17 0 -15 -2 -14 -20 2 -30 27 -99 30 -138 6z"/>
<path d="M2710 1411 c0 -55 4 -111 10 -125 16 -42 66 -66 137 -66 126 0 153
33 153 188 l0 102 -50 0 -50 0 0 -93 c0 -101 -7 -117 -51 -117 -43 0 -52 21
-50 120 l2 90 -51 0 -50 0 0 -99z"/>
<path d="M3070 1371 l0 -141 50 0 49 0 -2 138 -2 137 -47 3 -48 3 0 -140z"/>
</g>
</svg>
