<?xml version="1.0" standalone="no"?>
<!DOCTYPE svg PUBLIC "-//W3C//DTD SVG 20010904//EN"
 "http://www.w3.org/TR/2001/REC-SVG-20010904/DTD/svg10.dtd">
<svg version="1.0" xmlns="http://www.w3.org/2000/svg"
 width="300.000000pt" height="127.000000pt" viewBox="0 0 300.000000 127.000000"
 preserveAspectRatio="xMidYMid meet">

<g transform="translate(0.000000,127.000000) scale(0.100000,-0.100000)"
fill="#000000" stroke="none">
<path d="M291 188 c0 -13 8 -57 17 -98 14 -63 20 -75 39 -78 24 -4 26 0 48
106 18 90 18 92 0 92 -13 0 -35 -55 -35 -92 0 -38 -18 -25 -25 18 -9 61 -14
74 -31 74 -8 0 -14 -9 -13 -22z"/>
<path d="M440 190 c0 -11 7 -20 15 -20 8 0 15 9 15 20 0 11 -7 20 -15 20 -8 0
-15 -9 -15 -20z"/>
<path d="M862 194 c-25 -17 -29 -34 -8 -34 14 0 26 -49 26 -112 0 -27 4 -38
15 -38 12 0 15 18 15 100 0 107 -4 115 -48 84z"/>
<path d="M956 194 c-19 -18 -22 -133 -6 -165 12 -22 59 -26 78 -7 7 7 12 43
12 90 0 66 -3 79 -19 88 -27 14 -47 13 -65 -6z m52 -86 c-4 -83 -25 -89 -30
-8 -3 66 -2 70 19 70 11 0 13 -14 11 -62z"/>
<path d="M1088 199 c-15 -8 -18 -24 -18 -87 0 -85 8 -102 50 -102 41 0 50 17
50 96 0 94 -28 125 -82 93z m50 -84 c1 -28 -2 -56 -7 -64 -17 -26 -31 1 -31
60 0 52 2 60 18 57 13 -2 18 -15 20 -53z"/>
<path d="M1201 196 c-7 -8 -11 -27 -9 -43 3 -24 8 -28 33 -28 27 0 30 4 33 34
5 46 -31 69 -57 37z m39 -30 c0 -8 -4 -17 -9 -21 -12 -7 -24 12 -16 25 9 15
25 12 25 -4z"/>
<path d="M1266 117 c-40 -105 -41 -107 -23 -107 7 0 28 40 46 89 36 96 38 104
23 109 -5 1 -26 -39 -46 -91z"/>
<path d="M1917 203 c-4 -3 -7 -48 -7 -100 l0 -93 44 0 c24 0 48 6 54 13 6 6
10 45 10 85 -1 62 -4 75 -22 87 -21 15 -68 20 -79 8z m61 -55 c-5 -32 -28 -35
-28 -4 0 17 5 26 16 26 10 0 14 -7 12 -22z m10 -80 c-5 -34 -38 -37 -38 -4 0
20 5 26 21 26 15 0 20 -5 17 -22z"/>
<path d="M2054 199 c-10 -17 13 -36 27 -22 12 12 4 33 -11 33 -5 0 -12 -5 -16
-11z"/>
<path d="M2477 203 c-13 -12 -7 -33 8 -33 8 0 15 9 15 20 0 20 -11 26 -23 13z"/>
<path d="M2130 165 c0 -8 -4 -15 -10 -15 -5 0 -10 -7 -10 -15 0 -8 5 -15 10
-15 6 0 10 -16 10 -36 0 -19 5 -44 10 -55 13 -23 60 -26 60 -4 0 8 -7 15 -15
15 -21 0 -24 71 -4 78 12 5 11 32 -1 32 -5 0 -10 7 -10 15 0 8 -9 15 -20 15
-11 0 -20 -7 -20 -15z"/>
<path d="M440 80 c0 -56 3 -70 15 -70 12 0 15 14 15 70 0 56 -3 70 -15 70 -12
0 -15 -14 -15 -70z"/>
<path d="M496 124 c22 -86 32 -109 49 -109 14 0 22 16 36 65 10 36 18 66 19
68 0 1 -8 2 -18 2 -13 0 -22 -12 -28 -37 l-10 -38 -8 38 c-6 27 -13 37 -27 37
-16 0 -18 -5 -13 -26z"/>
<path d="M632 138 c-7 -7 -12 -18 -12 -25 0 -16 27 -17 32 -1 3 7 11 9 24 4
17 -7 14 -10 -19 -27 -32 -17 -38 -25 -35 -47 3 -25 7 -27 51 -30 l47 -3 0 58
c0 65 -11 83 -50 83 -14 0 -31 -5 -38 -12z m58 -78 c0 -13 -28 -25 -38 -16 -3
4 0 11 8 16 20 13 30 12 30 0z"/>
<path d="M1502 138 c-7 -7 -12 -33 -12 -58 0 -25 5 -51 12 -58 19 -19 66 -15
78 7 14 27 13 31 -10 31 -11 0 -20 -4 -20 -10 0 -5 -7 -10 -15 -10 -31 0 -15
29 18 32 24 2 33 8 35 24 6 42 -56 72 -86 42z m48 -28 c0 -5 -7 -10 -15 -10
-8 0 -15 5 -15 10 0 6 7 10 15 10 8 0 15 -4 15 -10z"/>
<path d="M1620 80 c0 -54 3 -70 14 -70 11 0 16 15 18 52 2 39 7 53 18 53 11 0
16 -14 18 -53 2 -37 7 -52 18 -52 10 0 14 14 14 55 0 42 3 55 15 55 12 0 15
-13 15 -55 0 -48 2 -55 20 -55 17 0 20 7 20 51 0 80 -7 86 -95 87 l-75 1 0
-69z"/>
<path d="M2050 80 c0 -63 2 -70 20 -70 18 0 20 7 20 70 0 63 -2 70 -20 70 -18
0 -20 -7 -20 -70z"/>
<path d="M2232 138 c-7 -7 -12 -33 -12 -58 0 -53 13 -70 52 -70 24 0 48 22 48
44 0 11 -38 6 -42 -6 -7 -21 -28 3 -28 32 0 32 18 50 30 30 4 -6 14 -10 22 -8
12 2 13 9 7 26 -9 25 -56 31 -77 10z"/>
<path d="M2356 134 c-17 -16 -20 -52 -10 -92 7 -25 41 -37 73 -27 18 5 21 15
21 59 0 28 -5 57 -12 64 -17 17 -54 15 -72 -4z m54 -54 c0 -29 -4 -40 -15 -40
-11 0 -15 11 -15 40 0 29 4 40 15 40 11 0 15 -11 15 -40z"/>
<path d="M2470 80 c0 -53 3 -70 14 -70 10 0 15 15 18 48 4 65 -1 92 -18 92
-11 0 -14 -16 -14 -70z"/>
<path d="M2538 144 c-2 -1 -1 -32 0 -68 3 -49 7 -66 18 -66 10 0 14 14 14 55
0 42 3 55 15 55 12 0 15 -13 15 -55 0 -48 2 -55 20 -55 17 0 20 7 20 51 0 72
-12 89 -60 87 -22 -1 -41 -2 -42 -4z"/>
<path d="M1301 86 c-7 -8 -11 -27 -9 -43 2 -22 9 -29 30 -31 34 -4 52 25 38
62 -11 29 -41 34 -59 12z m39 -36 c0 -11 -4 -20 -10 -20 -5 0 -10 9 -10 20 0
11 5 20 10 20 6 0 10 -9 10 -20z"/>
</g>
</svg>
